<svg width="30" height="30" viewBox="0 0 30 30" fill="none" xmlns="http://www.w3.org/2000/svg">
<path d="M11.9288 5.66469C12.2155 5.37629 12.569 5.1632 12.9579 5.04435C13.3468 4.9255 13.759 4.90458 14.158 4.98345C14.5569 5.06231 14.9302 5.23852 15.2446 5.49641C15.559 5.7543 15.8048 6.08588 15.9602 6.46167C16.1156 6.83746 16.1757 7.24583 16.1352 7.65046C16.0948 8.05509 15.955 8.44345 15.7282 8.78102C15.5015 9.1186 15.1949 9.39492 14.8356 9.58543C14.4763 9.77593 14.0756 9.87473 13.6689 9.87302H2.56189M15.6312 23.9543C15.9178 24.2427 16.2714 24.4557 16.6602 24.5746C17.0491 24.6934 17.4614 24.7144 17.8603 24.6355C18.2592 24.5566 18.6325 24.3804 18.9469 24.1225C19.2613 23.8646 19.5072 23.5331 19.6625 23.1573C19.8179 22.7815 19.8781 22.3731 19.8376 21.9685C19.7971 21.5639 19.6573 21.1755 19.4306 20.8379C19.2038 20.5003 18.8972 20.224 18.5379 20.0335C18.1787 19.843 17.7779 19.7442 17.3713 19.7459H2.56189M21.9745 9.53981C22.3334 9.18177 22.7751 8.91771 23.2604 8.77097C23.7456 8.62423 24.2596 8.59934 24.7568 8.69849C25.254 8.79765 25.7191 9.0178 26.1109 9.33947C26.5028 9.66114 26.8093 10.0744 27.0035 10.5428C27.1976 11.0111 27.2733 11.5201 27.224 12.0246C27.1746 12.5292 27.0017 13.0138 26.7204 13.4357C26.4392 13.8575 26.0584 14.2035 25.6116 14.4431C25.1648 14.6827 24.6659 14.8086 24.1589 14.8095L2.56189 14.8095" stroke="#3C3D41" stroke-width="2" stroke-linecap="round" stroke-linejoin="round"/>
</svg>
