<svg width="30" height="31" viewBox="0 0 30 31" fill="none" xmlns="http://www.w3.org/2000/svg">
<path d="M11.9288 6.2834C12.2155 5.99501 12.569 5.78191 12.9579 5.66307C13.3468 5.54422 13.759 5.5233 14.158 5.60216C14.5569 5.68103 14.9302 5.85724 15.2446 6.11513C15.559 6.37301 15.8048 6.70459 15.9602 7.08038C16.1156 7.45618 16.1757 7.86454 16.1352 8.26917C16.0948 8.6738 15.955 9.06217 15.7282 9.39974C15.5015 9.73731 15.1949 10.0136 14.8356 10.2041C14.4763 10.3946 14.0756 10.4934 13.6689 10.4917H2.56189M15.6312 24.573C15.9178 24.8614 16.2714 25.0745 16.6602 25.1933C17.0491 25.3122 17.4614 25.3331 17.8603 25.2542C18.2592 25.1753 18.6325 24.9991 18.9469 24.7412C19.2613 24.4834 19.5072 24.1518 19.6625 23.776C19.8179 23.4002 19.8781 22.9918 19.8376 22.5872C19.7971 22.1826 19.6573 21.7942 19.4306 21.4566C19.2038 21.1191 18.8972 20.8427 18.5379 20.6522C18.1787 20.4617 17.7779 20.3629 17.3713 20.3646H2.56189M21.9745 10.1585C22.3334 9.80049 22.7751 9.53642 23.2604 9.38968C23.7456 9.24294 24.2596 9.21805 24.7568 9.31721C25.254 9.41636 25.7191 9.63651 26.1109 9.95819C26.5028 10.2799 26.8093 10.6931 27.0035 11.1615C27.1976 11.6298 27.2733 12.1388 27.224 12.6433C27.1746 13.1479 27.0017 13.6325 26.7204 14.0544C26.4392 14.4762 26.0584 14.8222 25.6116 15.0618C25.1648 15.3015 24.6659 15.4273 24.1589 15.4282L2.56189 15.4282" stroke="#3C3D41" stroke-width="2" stroke-linecap="round" stroke-linejoin="round"/>
</svg>
