<svg width="30" height="30" viewBox="0 0 30 30" fill="none" xmlns="http://www.w3.org/2000/svg">
<path d="M11.9289 5.66469C12.2156 5.37629 12.5691 5.1632 12.958 5.04435C13.3469 4.9255 13.7592 4.90458 14.1581 4.98345C14.557 5.06231 14.9303 5.23852 15.2447 5.49641C15.5591 5.7543 15.8049 6.08588 15.9603 6.46167C16.1157 6.83746 16.1758 7.24583 16.1354 7.65046C16.0949 8.05509 15.9551 8.44345 15.7283 8.78102C15.5016 9.1186 15.195 9.39492 14.8357 9.58543C14.4764 9.77593 14.0757 9.87473 13.669 9.87302H2.56201M15.6313 23.9543C15.918 24.2427 16.2715 24.4557 16.6604 24.5746C17.0493 24.6934 17.4615 24.7144 17.8604 24.6355C18.2594 24.5566 18.6326 24.3804 18.947 24.1225C19.2615 23.8646 19.5073 23.5331 19.6627 23.1573C19.8181 22.7815 19.8782 22.3731 19.8377 21.9685C19.7972 21.5639 19.6574 21.1755 19.4307 20.8379C19.204 20.5003 18.8973 20.224 18.5381 20.0335C18.1788 19.843 17.778 19.7442 17.3714 19.7459H2.56201M21.9746 9.53981C22.3336 9.18177 22.7752 8.91771 23.2605 8.77097C23.7458 8.62423 24.2597 8.59934 24.7569 8.69849C25.2541 8.79765 25.7192 9.0178 26.1111 9.33947C26.5029 9.66114 26.8095 10.0744 27.0036 10.5428C27.1977 11.0111 27.2735 11.5201 27.2241 12.0246C27.1747 12.5292 27.0018 13.0138 26.7206 13.4357C26.4393 13.8575 26.0585 14.2035 25.6117 14.4431C25.1649 14.6827 24.666 14.8086 24.159 14.8095H2.56201" stroke="#3C3D41" stroke-width="2" stroke-linecap="round" stroke-linejoin="round"/>
</svg>
