<svg width="30" height="31" viewBox="0 0 30 31" fill="none" xmlns="http://www.w3.org/2000/svg">
<path d="M11.9289 6.2834C12.2156 5.99501 12.5691 5.78191 12.958 5.66307C13.3469 5.54422 13.7592 5.5233 14.1581 5.60216C14.557 5.68103 14.9303 5.85724 15.2447 6.11513C15.5591 6.37301 15.8049 6.70459 15.9603 7.08038C16.1157 7.45618 16.1758 7.86454 16.1354 8.26917C16.0949 8.6738 15.9551 9.06217 15.7283 9.39974C15.5016 9.73731 15.195 10.0136 14.8357 10.2041C14.4764 10.3946 14.0757 10.4934 13.669 10.4917H2.56201M15.6313 24.573C15.918 24.8614 16.2715 25.0745 16.6604 25.1933C17.0493 25.3122 17.4615 25.3331 17.8604 25.2542C18.2594 25.1753 18.6326 24.9991 18.947 24.7412C19.2615 24.4834 19.5073 24.1518 19.6627 23.776C19.8181 23.4002 19.8782 22.9918 19.8377 22.5872C19.7972 22.1826 19.6574 21.7942 19.4307 21.4566C19.204 21.1191 18.8973 20.8427 18.5381 20.6522C18.1788 20.4617 17.778 20.3629 17.3714 20.3646H2.56201M21.9746 10.1585C22.3336 9.80049 22.7752 9.53642 23.2605 9.38968C23.7458 9.24294 24.2597 9.21805 24.7569 9.31721C25.2541 9.41636 25.7192 9.63651 26.1111 9.95819C26.5029 10.2799 26.8095 10.6931 27.0036 11.1615C27.1977 11.6298 27.2735 12.1388 27.2241 12.6433C27.1747 13.1479 27.0018 13.6325 26.7206 14.0544C26.4393 14.4762 26.0585 14.8222 25.6117 15.0618C25.1649 15.3015 24.666 15.4273 24.159 15.4282H2.56201" stroke="#3C3D41" stroke-width="2" stroke-linecap="round" stroke-linejoin="round"/>
</svg>
