<svg width="30" height="31" viewBox="0 0 30 31" fill="none" xmlns="http://www.w3.org/2000/svg">
<path d="M11.9288 6.52089C12.2155 6.2325 12.569 6.0194 12.9579 5.90055C13.3468 5.7817 13.759 5.76078 14.158 5.83965C14.5569 5.91852 14.9302 6.09472 15.2446 6.35261C15.559 6.6105 15.8048 6.94208 15.9602 7.31787C16.1156 7.69366 16.1757 8.10203 16.1352 8.50666C16.0948 8.91129 15.955 9.29965 15.7282 9.63723C15.5015 9.9748 15.1949 10.2511 14.8356 10.4416C14.4763 10.6321 14.0756 10.7309 13.6689 10.7292H2.56189M15.6312 24.8105C15.9178 25.0989 16.2714 25.3119 16.6602 25.4308C17.0491 25.5496 17.4614 25.5706 17.8603 25.4917C18.2592 25.4128 18.6325 25.2366 18.9469 24.9787C19.2613 24.7208 19.5072 24.3893 19.6625 24.0135C19.8179 23.6377 19.8781 23.2293 19.8376 22.8247C19.7971 22.4201 19.6573 22.0317 19.4306 21.6941C19.2038 21.3565 18.8972 21.0802 18.5379 20.8897C18.1787 20.6992 17.7779 20.6004 17.3713 20.6021H2.56189M21.9745 10.396C22.3334 10.038 22.7751 9.77391 23.2604 9.62717C23.7456 9.48043 24.2596 9.45554 24.7568 9.5547C25.254 9.65385 25.7191 9.874 26.1109 10.1957C26.5028 10.5173 26.8093 10.9306 27.0035 11.399C27.1976 11.8673 27.2733 12.3763 27.224 12.8808C27.1746 13.3854 27.0017 13.87 26.7204 14.2919C26.4392 14.7137 26.0584 15.0597 25.6116 15.2993C25.1648 15.5389 24.6659 15.6648 24.1589 15.6657L2.56189 15.6657" stroke="#3C3D41" stroke-width="2" stroke-linecap="round" stroke-linejoin="round"/>
</svg>
