<svg width="30" height="30" viewBox="0 0 30 30" fill="none" xmlns="http://www.w3.org/2000/svg">
<path d="M11.9288 5.90212C12.2155 5.61372 12.569 5.40063 12.9579 5.28178C13.3468 5.16293 13.759 5.14201 14.158 5.22087C14.5569 5.29974 14.9302 5.47595 15.2446 5.73384C15.559 5.99173 15.8048 6.32331 15.9602 6.6991C16.1156 7.07489 16.1757 7.48325 16.1352 7.88788C16.0948 8.29252 15.955 8.68088 15.7282 9.01845C15.5015 9.35602 15.1949 9.63234 14.8356 9.82285C14.4763 10.0134 14.0756 10.1122 13.6689 10.1104H2.56189M15.6312 24.1917C15.9178 24.4801 16.2714 24.6932 16.6602 24.812C17.0491 24.9309 17.4614 24.9518 17.8603 24.8729C18.2592 24.7941 18.6325 24.6178 18.9469 24.36C19.2613 24.1021 19.5072 23.7705 19.6625 23.3947C19.8179 23.0189 19.8781 22.6105 19.8376 22.2059C19.7971 21.8013 19.6573 21.4129 19.4306 21.0753C19.2038 20.7378 18.8972 20.4615 18.5379 20.2709C18.1787 20.0804 17.7779 19.9816 17.3713 19.9834H2.56189M21.9745 9.77723C22.3334 9.4192 22.7751 9.15514 23.2604 9.0084C23.7456 8.86166 24.2596 8.83676 24.7568 8.93592C25.254 9.03508 25.7191 9.25523 26.1109 9.5769C26.5028 9.89857 26.8093 10.3118 27.0035 10.7802C27.1976 11.2485 27.2733 11.7575 27.224 12.2621C27.1746 12.7666 27.0017 13.2513 26.7204 13.6731C26.4392 14.0949 26.0584 14.4409 25.6116 14.6805C25.1648 14.9202 24.6659 15.046 24.1589 15.0469L2.56189 15.0469" stroke="#3C3D41" stroke-width="2" stroke-linecap="round" stroke-linejoin="round"/>
</svg>
