<svg width="30" height="31" viewBox="0 0 30 31" fill="none" xmlns="http://www.w3.org/2000/svg">
<path d="M11.9289 6.52089C12.2156 6.2325 12.5691 6.0194 12.958 5.90055C13.3469 5.7817 13.7592 5.76078 14.1581 5.83965C14.557 5.91852 14.9303 6.09472 15.2447 6.35261C15.5591 6.6105 15.8049 6.94208 15.9603 7.31787C16.1157 7.69366 16.1758 8.10203 16.1354 8.50666C16.0949 8.91129 15.9551 9.29965 15.7283 9.63723C15.5016 9.9748 15.195 10.2511 14.8357 10.4416C14.4764 10.6321 14.0757 10.7309 13.669 10.7292H2.56201M15.6313 24.8105C15.918 25.0989 16.2715 25.3119 16.6604 25.4308C17.0493 25.5496 17.4615 25.5706 17.8604 25.4917C18.2594 25.4128 18.6326 25.2366 18.947 24.9787C19.2615 24.7208 19.5073 24.3893 19.6627 24.0135C19.8181 23.6377 19.8782 23.2293 19.8377 22.8247C19.7972 22.4201 19.6574 22.0317 19.4307 21.6941C19.204 21.3565 18.8973 21.0802 18.5381 20.8897C18.1788 20.6992 17.778 20.6004 17.3714 20.6021H2.56201M21.9746 10.396C22.3336 10.038 22.7752 9.77391 23.2605 9.62717C23.7458 9.48043 24.2597 9.45554 24.7569 9.5547C25.2541 9.65385 25.7192 9.874 26.1111 10.1957C26.5029 10.5173 26.8095 10.9306 27.0036 11.399C27.1977 11.8673 27.2735 12.3763 27.2241 12.8808C27.1747 13.3854 27.0018 13.87 26.7206 14.2919C26.4393 14.7137 26.0585 15.0597 25.6117 15.2993C25.1649 15.5389 24.666 15.6648 24.159 15.6657H2.56201" stroke="#3C3D41" stroke-width="2" stroke-linecap="round" stroke-linejoin="round"/>
</svg>
