<svg width="30" height="30" viewBox="0 0 30 30" fill="none" xmlns="http://www.w3.org/2000/svg">
<path d="M11.9289 5.90212C12.2156 5.61372 12.5691 5.40063 12.958 5.28178C13.3469 5.16293 13.7592 5.14201 14.1581 5.22087C14.557 5.29974 14.9303 5.47595 15.2447 5.73384C15.5591 5.99173 15.8049 6.32331 15.9603 6.6991C16.1157 7.07489 16.1758 7.48325 16.1354 7.88788C16.0949 8.29252 15.9551 8.68088 15.7283 9.01845C15.5016 9.35602 15.195 9.63234 14.8357 9.82285C14.4764 10.0134 14.0757 10.1122 13.669 10.1104H2.56201M15.6313 24.1917C15.918 24.4801 16.2715 24.6932 16.6604 24.812C17.0493 24.9309 17.4615 24.9518 17.8604 24.8729C18.2594 24.7941 18.6326 24.6178 18.947 24.36C19.2615 24.1021 19.5073 23.7705 19.6627 23.3947C19.8181 23.0189 19.8782 22.6105 19.8377 22.2059C19.7972 21.8013 19.6574 21.4129 19.4307 21.0753C19.204 20.7378 18.8973 20.4615 18.5381 20.2709C18.1788 20.0804 17.778 19.9816 17.3714 19.9834H2.56201M21.9746 9.77723C22.3336 9.4192 22.7752 9.15514 23.2605 9.0084C23.7458 8.86166 24.2597 8.83676 24.7569 8.93592C25.2541 9.03508 25.7192 9.25523 26.1111 9.5769C26.5029 9.89857 26.8095 10.3118 27.0036 10.7802C27.1977 11.2485 27.2735 11.7575 27.2241 12.2621C27.1747 12.7666 27.0018 13.2513 26.7206 13.6731C26.4393 14.0949 26.0585 14.4409 25.6117 14.6805C25.1649 14.9202 24.666 15.046 24.159 15.0469H2.56201" stroke="#3C3D41" stroke-width="2" stroke-linecap="round" stroke-linejoin="round"/>
</svg>
